# xmcd
#
# Track frame offsets:
#	183
#	21533
#	40313
#	61885
#	73848
#	85075
#	105130
#	120763
#	138378
#	157115
#	175943
#	190390
#	206298
#	221733
#	239688
#	253298
#	266905
#	280280
#
# Disc length: 3985 seconds
# Revision: 9
# Processed by: cddbd v1.5.2PL0 Copyright (c) Steve Scherf et al.
# Submitted via: dBpowerAMP V12.0
#
DISCID=120f8f12
DTITLE=Dr. John - Goin' Back to New Orleans
DYEAR=1992
DGENRE=Blues
TTITLE0=Litanie Des Saints
TTITLE1=Careless Love
TTITLE2=My Indian Red
TTITLE3=Milneburg Joys
TTITLE4=I Thought I Heard Buddy Bolden Say
TTITLE5=Basin Street Blues
TTITLE6=Didn't he Ramble
TTITLE7=Do You Call That a Buddy
TTITLE8=How Come my Dog Don't Bark When You Come 'Round
TTITLE9=Good Night, Irene
TTITLE10=Fess up
TTITLE11=Since I Fell For You
TTITLE12=I'll be Glad When You're Dead, You Rascal You
TTITLE13=Cabbage Head
TTITLE14=Goin' Home Tomorrow
TTITLE15=Blue Monday
TTITLE16=Scald Dog
TTITLE17=Goin' Back to New Orleans
EXTD=
EXTT0=
EXTT1=
EXTT2=
EXTT3=
EXTT4=
EXTT5=
EXTT6=
EXTT7=
EXTT8=
EXTT9=
EXTT10=
EXTT11=
EXTT12=
EXTT13=
EXTT14=
EXTT15=
EXTT16=
EXTT17=
PLAYORDER=
